<?xml version="1.0" standalone="no"?>
<!DOCTYPE svg PUBLIC "-//W3C//DTD SVG 20010904//EN"
 "http://www.w3.org/TR/2001/REC-SVG-20010904/DTD/svg10.dtd">
<svg version="1.0" xmlns="http://www.w3.org/2000/svg"
 width="250.000000pt" height="250.000000pt" viewBox="0 0 250.000000 250.000000"
 preserveAspectRatio="xMidYMid meet">
<metadata>
Created by potrace 1.11, written by Peter Selinger 2001-2013
</metadata>
<g transform="translate(0.000000,250.000000) scale(0.100000,-0.100000)"
fill="#000000" stroke="none">
<path d="M485 2442 c-149 -143 -222 -246 -269 -382 -9 -25 -16 -53 -16 -63 0
-10 -4 -15 -10 -12 -5 3 -10 17 -10 31 0 66 -51 -23 -69 -121 -14 -74 3 -193
39 -280 27 -65 64 -137 77 -151 8 -8 13 -18 9 -21 -7 -8 -76 67 -76 83 0 7 -4
14 -8 16 -11 4 -72 133 -72 152 0 8 -4 17 -9 20 -5 3 -12 21 -15 41 -8 40 -21
51 -41 35 -12 -10 -15 -52 -15 -230 0 -244 -1 -241 82 -350 21 -28 38 -53 38
-55 0 -15 -26 1 -66 40 -24 25 -47 45 -49 45 -3 0 -5 -65 -5 -145 l0 -146 66
-64 c36 -36 72 -65 80 -65 8 0 14 -4 14 -10 0 -5 -11 -10 -24 -10 -14 0 -28 5
-31 10 -3 6 -14 10 -23 10 -9 0 -28 9 -42 20 -14 11 -28 20 -32 20 -5 0 -8
-41 -8 -91 0 -85 2 -93 32 -137 18 -26 45 -60 61 -75 43 -40 130 -77 182 -77
25 0 45 -4 45 -8 0 -18 -55 -37 -107 -37 -29 0 -53 -4 -53 -8 0 -28 151 -186
207 -215 12 -7 49 -12 82 -12 58 0 85 8 123 38 13 11 18 11 24 1 4 -7 2 -15
-4 -17 -7 -2 -12 -10 -12 -17 0 -17 -61 -65 -83 -65 -57 0 -1 -70 82 -101 51
-19 61 -20 110 -8 35 8 66 24 89 46 19 18 39 33 43 33 10 0 0 -61 -12 -74 -5
-6 -9 -16 -9 -23 0 -10 37 -13 169 -13 l170 0 77 40 c43 22 79 39 80 37 2 -2
-10 -20 -27 -40 l-30 -37 117 0 c107 0 118 2 135 22 11 11 22 18 27 13 4 -4 1
-10 -5 -12 -52 -19 35 -23 452 -23 l466 0 34 35 35 34 0 259 0 258 -37 36
c-45 42 -113 87 -168 112 -62 28 -144 63 -180 76 -62 23 -124 59 -157 93 -32
31 -38 44 -38 79 0 48 33 98 80 121 79 40 296 25 400 -27 43 -21 53 -12 70 69
8 37 17 68 22 71 13 8 9 119 -4 132 -7 7 -22 12 -34 12 -13 0 -25 4 -28 9 -13
21 -224 43 -341 36 -184 -11 -282 -51 -390 -160 -92 -92 -115 -150 -115 -288
0 -54 4 -105 9 -115 5 -9 16 -33 25 -53 46 -106 192 -212 386 -279 127 -44
211 -106 227 -170 36 -135 -109 -218 -324 -185 -92 14 -189 42 -243 70 -20 10
-42 14 -60 10 -25 -6 -30 -2 -45 28 -18 39 -50 57 -100 57 -32 0 -35 3 -35 28
0 30 -54 92 -81 92 -8 0 -19 4 -24 9 -6 5 -18 11 -29 13 -14 2 -19 13 -20 43
-3 50 -39 106 -88 136 -27 17 -36 28 -31 39 15 33 14 98 -1 128 -19 38 -20 47
-3 64 14 14 48 76 66 121 6 16 24 34 41 41 42 17 104 78 126 123 10 21 21 65
24 98 5 59 6 61 52 90 25 17 74 46 109 65 127 72 333 305 397 451 37 86 42
100 42 137 0 44 -12 54 -90 72 -30 7 -68 16 -84 21 -16 5 -82 9 -147 9 -111 0
-133 -3 -269 -42 -84 -23 -78 -26 -84 38 -4 33 -11 73 -16 90 -6 17 -10 41
-10 54 0 28 -36 134 -58 170 -8 14 -25 40 -36 57 l-21 33 -220 0 -220 0 -21
-33 c-20 -32 -99 -191 -115 -234 -5 -13 -13 -33 -18 -45 -22 -57 -45 -136 -60
-213 -5 -27 -15 -74 -20 -103 -25 -123 1 -256 63 -336 17 -21 24 -17 65 42 20
29 21 33 7 48 -9 8 -16 18 -16 21 0 14 38 32 70 33 36 1 79 24 67 37 -4 3 -18
1 -32 -5 -14 -7 -37 -12 -50 -12 -14 0 -25 -4 -25 -10 0 -5 -12 -10 -27 -10
-21 0 -31 7 -40 27 -22 47 -17 53 40 53 110 1 223 13 237 25 26 22 186 95 208
95 18 0 22 6 22 32 0 35 -40 148 -52 148 -12 0 -10 -38 3 -61 5 -11 9 -34 7
-52 l-3 -32 -32 50 c-41 62 -91 120 -99 112 -3 -3 13 -33 35 -66 23 -33 41
-65 41 -71 0 -10 -144 110 -162 135 -4 5 -10 7 -13 3 -4 -3 23 -36 59 -73 36
-37 66 -72 66 -77 0 -7 -115 65 -130 81 -3 3 -16 12 -29 19 -13 8 -39 23 -58
33 -48 27 -31 5 26 -34 62 -42 150 -111 151 -117 1 -14 -41 -29 -57 -21 -10 5
-52 19 -93 31 -41 12 -85 27 -96 32 -12 6 -30 8 -40 6 -18 -5 -18 -5 1 -12 11
-4 28 -12 37 -17 10 -5 25 -9 33 -9 8 0 23 -4 33 -9 9 -5 31 -14 47 -21 17 -7
38 -16 47 -21 10 -5 25 -9 33 -9 8 0 15 -5 15 -11 0 -7 -10 -9 -27 -4 -27 7
-120 19 -230 31 -53 6 -53 6 -53 40 0 22 6 37 16 41 8 3 13 12 10 20 -6 13 20
59 50 90 37 39 208 65 246 39 12 -9 32 -13 48 -10 15 3 44 -2 66 -12 21 -9 47
-16 56 -15 21 3 108 -36 108 -49 0 -9 -14 -47 -33 -88 -8 -16 -7 -26 1 -34 20
-20 42 12 49 70 3 29 8 52 10 52 2 0 21 -12 43 -26 40 -27 53 -54 26 -54 -8 0
-16 -4 -18 -8 -6 -14 -66 -52 -82 -52 -9 0 -24 -4 -34 -9 -9 -5 -39 -19 -67
-32 -59 -27 -161 -94 -192 -125 -13 -13 -40 -35 -60 -51 -43 -32 -93 -81 -151
-149 l-40 -47 -33 18 c-19 10 -44 22 -55 28 -12 6 -31 32 -44 57 -12 25 -26
53 -31 62 -13 25 -11 222 2 272 6 22 15 59 21 81 24 92 53 167 111 285 33 69
63 127 66 130 3 3 12 16 20 30 8 14 21 35 29 48 l14 22 -83 0 -84 0 -60 -58z
m861 -539 l37 -38 -84 -6 c-46 -3 -85 -5 -87 -4 -6 5 74 84 85 84 6 1 28 -16
49 -36z m594 22 c0 -13 -57 -105 -100 -160 -117 -151 -386 -365 -459 -365 -12
0 -21 -4 -21 -8 0 -4 -12 -12 -27 -18 -22 -8 -31 -21 -40 -57 -7 -26 -13 -58
-13 -72 0 -14 -5 -25 -11 -25 -9 0 -10 27 -4 98 10 117 10 390 0 452 -6 41 -4
47 17 57 12 6 44 14 69 18 44 5 48 4 68 -24 12 -16 21 -32 21 -35 0 -10 -48
-7 -55 4 -3 6 -28 10 -56 10 -27 0 -49 -4 -49 -10 0 -5 24 -10 54 -10 30 0 58
-5 62 -11 3 -6 17 -9 30 -6 25 5 74 -40 74 -68 0 -9 7 -27 16 -41 9 -13 18
-43 20 -66 2 -22 6 -43 9 -46 13 -14 239 190 301 272 16 21 35 45 42 52 6 7
12 17 12 23 0 6 5 11 10 11 6 0 10 7 10 15 0 8 5 15 10 15 6 0 10 -2 10 -5z
m-1220 -84 c30 -6 76 -14 103 -17 26 -4 47 -10 47 -14 0 -4 -39 -10 -87 -14
-49 -3 -118 -9 -155 -12 l-68 -6 0 42 0 42 53 -5 c28 -3 77 -10 107 -16z"/>
<path d="M1291 1744 c8 -9 12 -27 11 -40 -2 -17 2 -24 12 -24 9 0 24 -4 34 -9
54 -27 104 -51 108 -51 2 0 4 5 4 10 0 6 -7 10 -15 10 -8 0 -15 3 -15 8 0 4
-25 18 -55 32 -30 14 -55 28 -55 33 0 11 48 9 55 -3 3 -5 19 -10 35 -10 16 0
32 -4 35 -10 7 -12 25 -13 25 -2 0 4 -15 13 -32 20 -18 7 -41 18 -50 23 -10 5
-27 9 -37 9 -11 0 -23 5 -26 10 -3 6 -15 10 -27 10 -18 0 -19 -2 -7 -16z"/>
<path d="M1300 1654 c0 -11 54 -54 68 -54 6 0 12 -4 12 -9 0 -5 8 -11 18 -14
23 -8 75 -40 84 -52 4 -5 10 -6 14 -2 9 8 -25 36 -43 37 -7 0 -13 4 -13 8 0 4
-12 15 -27 24 -16 9 -41 28 -58 42 -28 24 -55 34 -55 20z"/>
<path d="M1475 1610 c3 -5 8 -10 11 -10 2 0 4 5 4 10 0 6 -5 10 -11 10 -5 0
-7 -4 -4 -10z"/>
<path d="M1310 1581 c0 -25 114 -129 124 -113 6 10 -97 122 -113 122 -6 0 -11
-4 -11 -9z"/>
<path d="M1310 1464 c0 -12 34 -64 42 -64 4 0 8 7 8 15 0 8 -4 15 -9 15 -5 0
-11 9 -14 20 -5 18 -27 29 -27 14z"/>
<path d="M780 1950 c0 -5 7 -10 16 -10 8 0 12 5 9 10 -3 6 -10 10 -16 10 -5 0
-9 -4 -9 -10z"/>
<path d="M820 1930 c0 -5 7 -10 15 -10 8 0 15 -4 15 -10 0 -5 9 -10 20 -10 11
0 20 5 20 10 0 6 -9 10 -19 10 -11 0 -23 5 -26 10 -3 6 -10 10 -16 10 -5 0 -9
-4 -9 -10z"/>
</g>
</svg>
