<?xml version="1.0" encoding="utf-8"?>

<!DOCTYPE svg PUBLIC "-//W3C//DTD SVG 1.1//EN" "http://www.w3.org/Graphics/SVG/1.1/DTD/svg11.dtd">
<svg version="1.1" id="Layer_1" xmlns="http://www.w3.org/2000/svg" xmlns:xlink="http://www.w3.org/1999/xlink" x="0px" y="0px"
	 viewBox="0 0 1881.0029 1021.455" enable-background="new 0 0 1881.0029 1021.455" xml:space="preserve">
<g>
	<path d="M632.1216,627.9576c-0.9926-3.5637-3.7682-6.2565-3.7211-10.2233c0.0989-8.3241,7.1909-16.5204,15.4866-17.2373
		c5.1986-0.4492,6.259-1.8508,5.0996-6.7402c-2.1297-8.9805,1.3908-15.5104,10.301-18.1105
		c2.9739-0.8679,4.5027-4.1899,6.9843-4.4103c6.9941-0.6212,7.6242-4.8513,8.2783-10.5103
		c0.3447-2.9823-0.4416-5.3029-1.3399-7.5264c-3.287-8.1357-5.1577-16.421-4.3195-25.2073
		c0.2093-2.1937,0.0524-3.3666-2.7371-4.0307c-5.3682-1.278-8.4351-6.3062-9.0182-11.894
		c-1.2204-11.694,3.0682-21.6474,8.4062-31.6801c4.9471-9.2982,12.4482-13.1224,22.2612-15.5031
		c7.2077-1.7487,13.9298-5.9823,20.4869-9.7689c4.7935-2.7682,9.8135-4.9951,14.968-6.5533
		c3.9074-1.1812,4.7286-3.2717,4.9941-6.6438c0.788-10.0055,8.5557-14.8323,17.9733-11.228
		c1.5596,0.5968,3.5018,1.7866,4.3068-0.2772c0.7465-1.9134,3.2792-3.5649,1.4066-6.2682
		c-3.4376-4.9623-3.3328-10.246-0.9733-15.6332c1.4478-3.3057,1.2654-6.8193,1.2861-10.319
		c0.0418-7.0958,4.2621-11.8541,11.2858-12.6662c3.386-0.3915,5.5656-1.6099,6.6213-5.3023
		c2.2424-7.8425,4.8505-15.6417,12.6409-20.084c0.3995-0.2278,0.9417-0.7571,0.9125-1.1035
		c-0.5682-6.7347,1.4583-13.7169-1.2353-20.1972c-2.0694-4.9786-3.5074-9.9242-3.7665-15.3444
		c-0.1725-3.6089-1.0204-7.2357-1.9606-10.749c-3.8076-14.2298,4.7813-25.9079,19.519-25.2241
		c9.0548,0.4201,18.1728,0.4776,27.1991,2.4503c16.5111,3.6084,33.483,2.7338,50.2292,4.1483
		c6.9066,0.5834,13.9424,0.5937,20.6136,2.4117c9.3904,2.559,15.0796,9.3151,18.021,18.4276
		c1.0177,3.1527,2.139,6.3459,2.5396,9.6034c0.4071,3.3102,1.9859,2.8557,4.0297,1.9703
		c17.3396-7.5123,34.6542-15.0826,52.0099-22.5574c19.0495-8.2043,38.145-16.3018,57.2018-24.4894
		c19.6639-8.4485,39.2953-16.9726,58.9591-25.4213c21.9454-9.429,43.916-18.8,65.8672-28.2158
		c19.8114-8.4979,39.3807-17.6346,59.5314-25.2301c7.9473-2.9956,12.5972-10.125,20.3441-12.7783
		c0.4835-0.1656,0.8046-1.0145,1.0599-1.6064c6.0619-14.0542,18.4601-17.2979,31.915-18.4965
		c1.7314-0.1542,3.212-0.6438,4.714-1.2086c4.3-1.617,8.6389-1.5918,12.5685,0.5578c2.3954,1.3103,4.1693,1.089,6.4371,0.1052
		c20.074-8.7081,40.182-17.3378,60.2861-25.9763c3.9633-1.703,7.9995-3.2431,11.9186-5.0403
		c4.6184-2.1178,9.3606-3.7951,13.3691-7.3354c5.584-4.9317,13.375-5.0515,19.3684-0.669
		c7.1025,5.1936,12.4325,11.9964,15.2288,20.3899c2.9535,8.8651-0.1989,16.1709-5.5725,23.5585
		c-5.6458,7.7618-14.4023,8.2548-21.8782,11.6586c-16,7.2851-32.241,14.0385-48.3269,21.1374
		c-16.8507,7.4365-33.6414,15.0092-50.4423,22.5581c-2.5565,1.1487-3.343,7.4918-1.2159,9.279
		c1.1716,0.9845,2.2356-0.0297,3.1857-0.4169c22.6382-9.2248,45.2278-18.5692,67.8752-27.7711
		c30.4791-12.3842,61.0068-24.6487,91.4994-37.0002c18.9536-7.6775,37.8574-15.4787,56.8247-23.122
		c35.4454-14.2837,70.95-28.4213,106.3749-42.7556c28.8218-11.6624,57.5421-23.5754,86.3473-35.279
		c20.3173-8.255,40.7158-16.3102,61.045-24.5361c4.6052-1.8634,8.9662-4.3086,13.7941-5.659
		c1.7806-0.4981,3.25-1.6017,4.4266-3.1027c4.9783-6.3509,11.9108-9.1824,19.3856-7.3421
		c8.1888,2.0161,15.845,5.5848,18.7762,15.163c2.2877,7.4755,3.9952,15.0765,6.0735,22.5903
		c1.381,4.9931,3.4558,9.6582,5.5647,14.3664c4.4603,9.9587,3.222,20.7796,3.7668,31.237
		c0.368,7.0638-4.5305,12.0595-10.4794,15.2687c-7.5598,4.0781-15.4883,7.4661-23.1411,11.3801
		c-5.2667,2.6937-11.2321,0.8025-16.5438,2.9846c-20.1425,8.2747-40.2861,16.5471-60.4705,24.719
		c-22.7979,9.23-45.6692,18.2785-68.453,27.5428c-17.8657,7.2646-35.5475,14.9894-53.4907,22.0535
		c-21.9702,8.6495-43.634,18.0264-65.4932,26.934c-26.9305,10.9742-53.9921,21.627-80.9304,32.5824
		c-33.4142,13.589-66.7625,27.3398-100.1292,41.0457c-1.7941,0.7369-3.4939,1.7033-6.0522,2.9645
		c4.9005,1.3661,8.9417,2.5201,13.0039,3.5941c0.5775,0.1527,1.3469,0.0967,1.8779-0.1655
		c14.8119-7.3138,30.7286-12.0459,45.1276-20.5093c9.0562-5.323,19.6813-6.7271,30.2699-3.0767
		c3.7159,1.2811,7.1385,1.804,11.3813,0.2717c11.7762-4.2529,22.4421,3.2018,25.204,16.8485
		c0.5603,2.7685,0.9403,5.5853,1.2117,8.3983c1.0648,11.0381-3.7656,18.731-14.2118,22.2547
		c-2.5615,0.8641-4.1038,1.9313-5.1569,4.6357c-3.5924,9.2264-13.6738,13.0015-22.6368,8.4471
		c-2.6616-1.3524-4.4174-0.7767-6.8374,0.2797c-16.8352,7.3494-33.0883,16.0306-51.0514,20.7634
		c-12.9856,3.4213-25.0625,9.3934-36.864,15.8171c-2.6387,1.4363-3.4211,3.362-3.5854,6.3817
		c-0.6439,11.8306,1.1813,23.481,2.0265,35.2021c0.4425,6.1356-2.088,11.415-5.1715,16.3857
		c-3.6321,5.8552-9.4939,6.6068-15.4359,5.0646c-2.8099-0.7292-3.9414,0.0083-5.1266,2.0321
		c-5.9558,10.1697-13.4172,19.2444-16.5365,31.2953c-2.4449,9.4459-6.4901,18.641-9.2295,28.1589
		c-0.9474,3.2917-0.256,3.6149,2.9618,2.7991c6.3217-1.6025,12.9845-1.6523,19.1818-3.9936
		c0.735-0.2777,1.6545-0.0342,2.4824-0.1046c2.2394-0.1903,4.3448,0.4858,4.5474,2.8033c0.2034,2.329-1.7295,3.003-3.9845,3.4227
		c-7.8591,1.4623-15.6433,3.3217-23.4889,4.8628c-3.3873,0.6653-5.246,2.5429-5.6613,5.864
		c-0.3722,2.9771-1.0908,5.8322-1.9816,8.7071c-0.8425,2.7195-0.962,5.2022,3.2167,6.1336
		c4.9751,1.1088,8.1097,5.0951,10.2286,9.5822c0.8262,1.7496,1.4452,2.5903,3.5786,2.286c2.9923-0.4267,5.8949,1.197,8.6669,1.4025
		c4.2069,0.312,8.5402,0.3455,12.809,0.3261c5.5265-0.025,10.1031,1.642,13.9053,5.5476c0.9076,0.9323,1.4396,2.2532,3.0734,2.2255
		c1.9923-0.0339,4.0549,1.1158,3.4659-2.969c-1.1279-7.8229,3.6924-14.1427,10.4769-15.0826
		c7.7466-1.0732,13.9939,2.9509,15.4984,9.9832c1.6051,7.5019-2.0967,13.7616-9.8499,15.9209
		c-2.286,0.6367-2.5887,1.3364-1.8549,3.3319c1.2463,3.389,0.8021,7.7596,7.1403,6.2695c4.473-1.0516,8.5782,4.6067,6.9642,9.0732
		c-1.1182,3.0939-1.2352,6.0079-1.2079,9.1641c0.0548,6.3497-3.6925,10.9656-10.1057,12.4206
		c-2.2306,0.506-3.066,1.577-4.0677,3.5313c-4.6805,9.1311-10.3961,17.6608-15.998,26.2479
		c-0.6248,0.9578-2.51,1.7899-0.1813,2.9649c10.5435,5.3199,12.7194,14.9189,11.8901,25.2972
		c-0.4849,6.0664-1.1451,12.0634-0.8226,18.1606c0.1572,2.9714-0.9844,5.9077-3.4258,7.432
		c-4.8672,3.0386-5.4307,7.3448-5.0522,12.4114c0.2552,3.4156-0.8549,6.8388,4.4523,7.8196
		c3.1425,0.5807,4.8457,4.5969,3.4894,7.2849c-2.829,5.6071-3.1146,13.4794-11.4407,14.9957
		c-1.0292,0.1874-2.0768,0.9664-1.6819,2.0643c1.3669,3.8017-1.6217,9.0048,4.5581,11.428c2.9404,1.153,3.2411,5.3282,2.2889,8.5364
		c-1.4033,4.7289-3.8315,8.7327-8.5313,11.1292c-5.1771,2.6398-7.4983,7.3735-7.5671,12.9406
		c-0.064,5.1616-0.9747,9.6704-4.2946,13.9244c-2.3877,3.0594-4.516,6.5623-5.4697,10.5344
		c-0.8756,3.6473-2.6377,6.764-5.5266,9.2664c-6.8943,5.9718-9.1741,14.8832-13.8417,22.2791
		c-6.333,10.0348-14.8561,16.9482-25.0209,22.769c-9.1035,5.2131-18.308,9.7941-28.0704,13.6758
		c-5.3627,2.1323-10.3413,5.2939-16.0577,7.1658c-13.4353,4.3993-27.1056,6.7012-41.1743,6.8638
		c-7.4606,0.0862-15.0306,1.5626-22.277,0.891c-7.7781-0.7209-15.536-1.0897-23.2189-0.7061
		c-11.9404,0.5964-22.2823-3.5232-32.7952-8.2776c-7.4728-3.3797-14.3468-7.6119-20.7598-12.4813
		c-10.1273-7.6896-18.7733-17.0835-27.3081-26.4507c-3.021-3.3158-5.9209-3.4354-9.4363-2.6767
		c-11.6135,2.5065-23.3734,4.2007-34.9571,6.998c-6.8083,1.6441-13.9603,2.1689-20.9301,3.6891
		c-5.3528,1.1675-7.7035,4.4684-10.0377,8.489c-1.6656,2.8691-3.3214,5.747-5.0953,8.549c-1.1716,1.8505-2.7242,3.63-4.7385,4.323
		c-6.2684,2.1566-10.1804,5.0175-6.6552,12.569c1.1669,2.4997-0.532,5.7032-2.0181,8.0131
		c-10.6647,16.5762-20.9681,33.3035-35.5008,47.142c-12.6202,12.0175-27.9466,17.1599-44.0431,21.443
		c-4.6205,1.2296-9.2584,2.8475-13.4667,5.0814c-9.4547,5.0187-19.2173,8.7408-29.8455,10.4945
		c-11.8123,1.949-23.5437,4.6456-35.6014,3.4977c-11.8023-1.1238-23.6649-0.1331-35.4116-1.0808
		c-10.469-0.8447-20.3355-4.9557-29.7845-9.4191c-9.4371-4.4576-19.6795-6.9141-28.6641-12.5742
		c-6.2005-3.9063-12.2739-6.722-11.8273-15.8792c0.1176-2.4102-4.9489-4.4061-8.7775-4.396
		c-6.2311,0.0166-11.8275-1.4193-15.6501-6.9973c-1.9764-2.8842-2.7065-5.975-2.7153-9.3972
		c-0.0128-4.96-2.295-7.6161-7.0256-7.3938c-6.9006,0.3246-11.0867-2.5875-12.8492-9.198
		c-0.2537-0.9518-0.8702-1.6458-1.6425-2.3751c-5.2311-4.9402-5.6585-10.1798-1.5369-15.8802
		c0.6778-0.9374,2.717-1.764,1.1034-3.1619c-1.36-1.1782-2.4105-3.4418-4.976-2.452c-5.0496,1.948-8.5702,0.0413-11.3919-4.2877
		c-3.4609-5.3096-6.1711-10.9499-1.4551-16.4444c3.6212-4.219,1.5816-8.0681,0.7809-12.0132
		c-0.486-2.3943-2.2191-3.4866-5.2841-2.54c-7.8892,2.4365-12.3952-0.4847-15.1017-9.1334
		c-2.6208-8.3748-0.1676-14.9547,6.8566-17.1952c2.787-0.889,3.3578-1.9723,2.1848-4.4073
		c-0.2134-0.4431-0.1824-1.0209-0.4413-1.4224c-1.3346-2.0704,0.4037-5.8515-2.1479-6.5344
		c-2.4794-0.6636-5.6286,0.2568-8.2435,1.1695c-15.3544,5.3595-30.9293,9.6135-47.1217,11.7224
		c-20.3639,2.6521-40.6476,5.9145-60.9858,8.7711c-20.994,2.9487-42.1075,4.9366-62.6533,10.7862
		c-8.8744,2.5266-18.216,3.7836-27.6149,3.5205c-15.0728-0.4218-29.6907,2.4183-44.1688,6.2791
		c-7.2639,1.937-14.8213,1.6575-22.2206,2.2693c-15.2228,1.2589-30.2094,3.913-45.1725,6.6459
		c-8.7464,1.5975-17.5722,0.5382-26.2798,2.0892c-23.1493,4.1232-46.189,8.8226-69.9965,7.9111
		c-7.4128-0.2839-14.9125,2.6583-22.4243,3.774c-10.9541,1.6271-21.496,5.7529-32.8975,4.9076
		c-3.2921-0.2441-6.568,1.8971-9.2911,4.1169c-2.7871,2.2721-6.1271,3.0606-9.4013,2.2981
		c-13.7265-3.1969-27.8385-3.7559-41.6604-6.3341c-4.9977-0.9322-10.3028-0.2062-15.4675-0.2556
		c-9.3357-0.0893-13.821-4.5257-13.8094-13.7832c0.0138-10.9732-1.3549-21.8859-1.0937-32.8873
		c0.1884-7.9359,1.2073-15.4171,9.1893-18.9435c8.1198-3.5873,15.2963,0.3314,21.6859,5.1207
		c2.5732,1.9288,5.5187,3.8364,6.8771,7.0916c0.8964,2.1481,1.9697,1.1633,2.8852,0.0901c2.4744-2.9005,5.126-5.6917,7.2646-8.8282
		c4.9426-7.249,13.6688-9.1227,20.7161-3.7762c2.5972,1.9703,3.6541,1.6978,6.0384-0.4814
		c4.5353-4.1451,10.2814-5.2814,16.2042-3.1164c3.4322,1.2546,6.1636,2.6545,8.2749-2.1494
		c1.3511-3.0742,4.9303-3.6178,8.2484-3.674c5.4176-0.0916,10.8739,0.7122,15.997-2.3413c2.8522-1.7,6.1375,0.9868,9.3105,0.3276
		c8.9506-1.8596,17.6819-4.3879,26.0243-8.1885c2.7305-1.244,5.6074-2.0383,8.6163-2.3589
		c6.0868-0.6485,11.8448-1.7939,17.353-5.1223c7.7557-4.6863,16.9241-5.839,25.67-7.6448c4.5536-0.9402,7.0287-3.1631,8.7548-7.0753
		c3.2621-7.3932,7.0117-14.6541,15.1401-17.6064c6.5186-2.3677,13.3287-4.0535,20.1271-5.4818
		c3.6891-0.775,7.1246-2.0541,9.9276-4.2208c10.6895-8.2628,23.5698-10.2341,36.1302-13.1266
		c10.4599-2.4089,20.9659-4.6277,31.488-6.7497c2.3395-0.4719,2.2454-2.196,2.6419-3.6716c1.0833-4.031,3.7937-6.2444,7.7349-6.8097
		c4.0916-0.5869,8.2131-0.1281,10.5804,3.7207c1.4788,2.4044,3.2235,2.6521,5.6708,2.8655c7.73,0.674,15.1763-1.2033,22.7374-2.049
		c1.4765-0.1651,1.9303-0.7427,1.6914-2.2718c-1.6356-10.4708,4.912-16.6538,12.6325-21.0472
		c4.2141-2.3981,4.115-5.027,3.6008-8.3265c-0.7648-4.9076-2.398-9.9994,1.0712-14.2824
		c5.163-6.3743,11.4554-11.0905,20.3482-10.5905c2.1597,0.1215,4.3354,0.0999,6.4977,0.0051
		c3.9181-0.1716,6.3766,1.7551,7.2077,5.3981c0.6249,2.7394,1.772,2.6491,4.2365,2.2964c5.0162-0.7183,7.5493-3.3914,9.8802-7.7764
		c2.4161-4.5451,6.4144-8.2213,8.6941-13.046c0.6207-1.3137,2.5048-2.7964,3.8771-2.8663
		c9.9249-0.5052,20.211-3.4745,29.1434,3.9283c4.1639,3.4509,7.9865,7.4634,13.6815,8.6881c1.4515,0.3122,2.7092,1.845,3.9031,2.978
		c4.4309,4.205,9.1996,3.6088,12.4163-1.4457c2.7883-4.3812,6.7967-7.1077,12.1186-6.3309
		c7.1614,1.0453,12.0251-1.5904,15.5615-7.7555c1.5737-2.7433,4.2716-5.102,7.27-5.7787c3.0912-0.6976,3.5484-2.6823,3.9586-4.8542
		c2.1735-11.5101,5.6631-14.5681,17.5984-15.1585C630.9631,628.3246,631.408,628.1352,632.1216,627.9576z M1139.7653,505.5351
		c0,3.1656-0.0022,6.3312,0.0004,9.4968c0.0057,7.1385,0.7115,8.2329,7.5548,6.4355c7.934-2.0839,15.8624-1.8102,23.7931-1.5444
		c4.6376,0.1554,5.6279-2.1464,5.9164-5.7445c0.4362-5.4398,1.4448-10.8424,1.0079-16.3415
		c-0.1976-2.4893,0.2101-5.1817,3.2377-5.1156c3.1565,0.069,2.9818,2.9699,2.965,5.3332
		c-0.0392,5.4716,0.1996,10.9429-0.8579,16.3842c-0.2689,1.3839-0.9691,3.8117,1.3486,4.1827
		c2.2971,0.3679,5.1768,1.2531,6.729-1.6226c1.0959-2.0306,1.9506-4.2122,2.718-6.395c1.4203-4.0393,2.6677-8.1392,4.0498-12.1924
		c0.5634-1.6524,1.5249-3.1918,3.5415-2.8113c2.1489,0.4054,2.8525,2.165,2.6821,4.1683c-0.0959,1.1285-0.512,2.2392-0.8549,3.3357
		c-1.3771,4.4028-2.7034,8.824-4.2152,13.1806c-0.5939,1.711-0.7932,2.9353,1.4193,3.2359
		c5.6978,0.774,10.6434,3.6257,15.8866,5.6653c1.2795,0.4977,2.5286,1.4419,4.1687,0.3165c3.1025-2.1286,6.0815-3.9319,8.3329-7.426
		c4.3822-6.8014,9.4054-13.3305,14.9911-19.182c8.1254-8.5121,16.3335-16.8906,23.1646-26.5195
		c4.9938-7.0391,10.1887-13.9362,14.4637-21.4612c0.6737-1.186,1.3152-2.1987,0.7947-3.6844
		c-2.7365-7.8092-5.173-15.7183-8.6497-23.2658c-1.1476-2.4914-2.2742-3.2192-4.8109-2.0266
		c-10.1975,4.7946-21.0994,7.8118-31.3669,12.5035c-5.7345,2.6202-11.0477,6.1427-16.9563,8.2421
		c-9.158,3.2541-18.3436,6.1731-27.3209,10.1484c-8.2668,3.6608-11.8368,7.4443-10.7742,16.5165
		c0.7385,6.3058-4.4792,13.0281-9.9524,13.9616c-6.2317,1.0629-12.6958,1.2457-18.8839-0.0464
		c-8.0078-1.6719-13.9667,2.5196-14.1074,10.7763C1139.7152,497.87,1139.7694,501.703,1139.7653,505.5351z M1051.5081,330.0818
		c1.2778,0.5967,2.1217,0.0089,3.0299-0.3542c22.8226-9.1248,45.6924-18.1337,68.4674-27.3759
		c28.3506-11.5048,56.6198-23.2104,84.9368-34.7981c2.9186-1.1943,5.9302-2.1596,8.8877-3.2604
		c3.4462-1.2827,2.8549-4.8093,2.4186-6.8182c-0.5493-2.5289-2.9053-0.3127-4.3267,0.2212
		c-3.1036,1.1658-6.1125,2.5855-9.1514,3.9216c-25.0522,11.0143-50.1016,22.0354-75.1536,33.0502
		c-20.3567,8.9503-40.7716,17.7714-61.0397,26.9178C1063.5901,324.2876,1057.1543,326.1202,1051.5081,330.0818z M976.4612,476.4652
		c4.8735,2.647,9.8784,1.8308,13.8161-0.1321c14.1517-7.0546,29.4802-10.8013,44.0443-16.6331
		c3.8347-1.5355,7.5046-3.9709,11.4705-4.5966c10.7548-1.6969,19.5553-7.7944,29.2472-11.865
		c2.3994-1.0076,2.3435-2.6559,1.7223-4.3977c-0.8674-2.4319-2.5162-0.6129-3.5953-0.193
		c-20.7006,8.0557-41.3635,16.2083-62.0444,24.315C999.5778,467.4878,988.0153,471.9659,976.4612,476.4652z M1065.3407,501.3398
		c-2.6841-0.3831-4.6316,0.6531-6.6987,1.246c-7.3373,2.1047-13.7832,6.3498-20.9849,8.7042
		c-4.1055,1.3423-8.0183,2.9517-11.6661,5.2243c-1.0876,0.6775-2.5106,1.2746-1.2039,3.0067
		c3.6982,4.9027,9.2223,7.0916,14.634,8.9083c3.5037,1.1761,3.2125-3.9167,5.5226-5.3035c0.5524-0.3315,0.9518-0.9202,1.4161-1.3958
		c5.7648-5.9026,13.1185-9.5433,20.0219-13.7732c2.2911-1.4038,3.0427-2.846,2.5966-5.1569
		C1068.4856,500.2484,1066.3007,501.6811,1065.3407,501.3398z M461.064,698.2387c5.232-4.9847,11.4632-7.3632,16.7824-11.2936
		c4.0256-2.9745,2.836-5.8787,1.1982-8.8631c-1.568-2.8572-3.8845-0.3784-5.8314-0.0303c-1.6049,0.2871-3.2503,0.7042-4.7011,1.4211
		c-2.8711,1.4188-6.9963,2.1417-7.7094,5.4141C459.926,688.9106,460.0706,693.3167,461.064,698.2387z M1307.0399,638.8466
		c-3.6311-6.7375-2.7799-13.5851-2.7982-20.3329c-0.025-9.2172-0.0048-9.2209-9.0299-10.4122
		c-0.2441-0.0322-0.5265,0.2244-0.8263,0.3627c-1.2477,4.2222,1.8586,7.1926,3.2397,10.6075
		c1.714,4.2386,2.5629,8.7222,0.0713,12.439c-2.8607,4.2676-0.6141,5.2125,2.66,6.1834
		C1302.2194,638.2464,1304.0095,639.2227,1307.0399,638.8466z M878.7889,536.344c-2.1276-9.3192-0.6925-18.4572-4.0773-26.9094
		c-1.7146,3.4895-2.769,6.9779-4.0535,10.3792C866.3211,531.2978,866.2899,531.2859,878.7889,536.344z M616.0699,664.428
		c-2.2497-2.0754-1.9105-6.9847-4.984-6.8714c-2.2354,0.0825-5.4993,1.744-7.0331,4.9614
		C608.2834,663.1904,612.1766,663.8093,616.0699,664.428z M1040.563,334.4715c3.0894-0.3765,6.1666-0.786,8.0719-3.6721
		C1045.9442,332.0234,1043.2537,333.2474,1040.563,334.4715z" fill="#ffffff"/>
</g>
</svg>
