<?xml version="1.0" encoding="UTF-8" standalone="no"?>
<!DOCTYPE svg PUBLIC "-//W3C//DTD SVG 1.1//EN" "http://www.w3.org/Graphics/SVG/1.1/DTD/svg11.dtd">
<svg width="100%" height="100%" viewBox="0 0 1150 1150" version="1.1" xmlns="http://www.w3.org/2000/svg" xmlns:xlink="http://www.w3.org/1999/xlink" xml:space="preserve"  style="fill-rule:evenodd;clip-rule:evenodd;stroke-linejoin:round;stroke-miterlimit:2;">
    <g id="emperor" transform="matrix(5.63326,0,0,5.63326,-2600,-100)">
        <path d="M562.763,29.29C612.966,29.29 653.724,70.048 653.724,120.251C653.724,170.453 612.966,211.211 562.763,211.211C512.561,211.211 471.802,170.453 471.802,120.251C471.802,70.048 512.561,29.29 562.763,29.29ZM533.947,71.397C533.947,71.397 535.057,66.315 539.941,62.167C544.826,58.019 552.992,56.721 552.992,56.721C552.992,56.721 550.929,60.062 550.549,62.991C550.549,62.991 554.219,59.845 558.789,58.76C568.853,56.37 581.421,57.61 581.421,57.61C581.421,57.61 575.654,60.736 575.193,62.963C575.193,62.963 583.889,62.511 588.012,64.658C594.02,67.787 595.295,73.225 597.77,76.03C600.245,78.835 602.102,82.729 602.102,82.729C602.102,82.729 594.377,82.507 592.032,81.167C592.032,81.167 600.675,89.564 604.106,95.383C609.197,104.017 609.836,120.824 611.932,129.462C614.027,138.1 618.568,145.301 618.568,145.301C618.568,145.301 606.328,147.978 597.484,134.693C597.484,134.693 595.916,147.659 609.501,160.305C609.501,160.305 584.86,159.608 577.609,144.755C577.609,144.755 573.199,154.908 583.657,173.492C583.657,173.492 562.849,170.663 557.421,156.653C557.421,156.653 553.552,160.401 556.702,177.242C556.702,177.242 538.371,165.758 540.633,153.345C540.633,153.345 533.901,157.599 532.629,168.673C532.629,168.673 525.382,161.193 529.294,149.049C533.206,136.905 536.206,136.964 539.689,135.028C543.172,133.093 555.196,127.829 558.134,115.955C560.303,107.191 554.409,99.496 554.409,99.496C554.409,99.496 562.272,89.296 555.237,79.706C548.202,70.117 533.947,71.397 533.947,71.397ZM513.577,118.095C513.577,118.095 503.184,109.391 502.921,102.808C502.921,102.808 500.06,100.596 502.402,96.774C504.745,92.951 515.121,89.295 518.834,87.115C518.834,87.115 519.952,83.119 521.134,81.279C522.316,79.439 529.411,76.452 531.603,76.065C536.168,75.258 542.238,75.689 548.424,79.908C559.104,87.193 547.752,99.787 547.752,99.787C547.752,99.787 556.081,106.539 552.175,116.981C548.269,127.424 537.792,130.887 531.839,130.83C525.885,130.773 526.327,140.053 526.325,142.776C526.325,142.776 521.426,138.71 518.191,132.925C514.957,127.139 515.334,121.828 515.334,121.828L521.401,124.744C521.401,124.744 526.032,124.043 532.34,119.572C535.383,117.415 532.713,108.767 526.434,108.911C519.638,109.068 513.703,110.6 513.703,110.6L513.577,118.095ZM525.45,95.2C525.45,95.2 521.751,89.79 521.642,88.423C521.534,87.056 522.73,86.445 524.604,86.123C526.478,85.801 531.781,86.022 531.781,86.022C532.988,86.329 536.658,89.483 536.256,90.354C535.854,91.225 525.45,95.2 525.45,95.2ZM559.85,80.464C557.714,78.328 558.147,75.041 560.622,73.743C563.097,72.445 574.345,69.806 577.109,69.261C579.872,68.717 582.533,70.543 582.125,74.173C581.854,76.583 582.274,80.536 579.193,84.037C575.934,87.74 571.783,90.638 569.689,88.628C567.595,86.618 561.985,82.6 559.85,80.464ZM572.596,84.867C572.596,84.867 566.742,80.378 564.889,79.044C563.037,77.71 564.363,76.571 566.416,75.975C568.47,75.38 577.732,73.224 577.732,73.224C577.732,73.224 580.354,78.936 572.596,84.867Z" style="fill:rgb(140,57,50);"/>
    </g>
</svg>
