<?xml version="1.0" encoding="UTF-8" standalone="no"?>
<!DOCTYPE svg PUBLIC "-//W3C//DTD SVG 1.1//EN" "http://www.w3.org/Graphics/SVG/1.1/DTD/svg11.dtd">
<svg width="100%" height="100%" viewBox="0 0 1150 1150" version="1.1" xmlns="http://www.w3.org/2000/svg" xmlns:xlink="http://www.w3.org/1999/xlink" xml:space="preserve"  style="fill-rule:evenodd;clip-rule:evenodd;stroke-linejoin:round;stroke-miterlimit:2;">
    <g id="harkonnen" transform="matrix(5.60255,0,0,5.60255,-4580,-4490)">
        <path d="M921.428,811.552C971.906,811.552 1012.89,852.534 1012.89,903.011C1012.89,953.489 971.906,994.471 921.428,994.471C870.95,994.471 829.969,953.489 829.969,903.011C829.969,852.534 870.95,811.552 921.428,811.552ZM918.154,855.722C918.154,855.722 913.95,853.231 906.505,854.886L909.994,850.991C909.994,850.991 907.044,852.122 906.221,852.545C905.397,852.967 905.938,851.715 906.901,851.08C907.864,850.446 910.027,848.645 910.027,848.645C910.027,848.645 908.779,846.648 907.159,847.513C903.859,849.273 903.715,852.275 903.715,852.275C903.715,852.275 901.479,849.528 902.421,846.032C904.162,839.573 910.817,839.634 910.817,839.634C910.817,839.634 911.128,836.118 915.534,836.015C923.186,835.836 926.579,839.23 926.579,839.23C926.579,839.23 928.259,837.261 930.376,837.418C932.494,837.575 934.488,838.596 936.65,837.887C938.813,837.178 940.543,835.964 940.543,835.964C940.543,835.964 939.438,840.379 936.645,841.933C936.645,841.933 939.921,841.773 943.098,840.238C943.098,840.238 941.569,847.552 933.923,847.38C933.923,847.38 935.028,851.228 936.672,852.94C936.672,852.94 935.636,854.418 934.287,853.983C934.287,853.983 935.054,857.122 937.1,858.884C937.1,858.884 936.122,859.407 935.001,858.881C935.001,858.881 935.489,861.319 936.976,862.693C936.976,862.693 935.764,863.862 934.483,863.199C934.483,863.199 934.967,867.543 934.716,868.827L933.298,868.46C933.298,868.46 933.255,872.995 931.083,875.54L929.931,874.785C929.931,874.785 929.817,877.002 929.313,878.219L927.716,877.788C927.716,877.788 926.674,880.289 927.485,881.956C927.485,881.956 928.837,881.685 929.896,882.338C930.955,882.991 931.962,884.816 931.962,884.816C931.962,884.816 933.563,880.079 933.901,878.501C934.239,876.923 934.557,876.141 934.557,876.141C934.557,876.141 937.259,876.762 938.633,880.119C938.633,880.119 940.045,875.618 938.71,869.989C938.71,869.989 943.229,868.852 945.721,874.364C945.721,874.364 946.721,861.808 947.309,856.936C947.896,852.065 949.999,845.728 949.999,845.728C949.999,845.728 953.505,849.167 953.57,857.277C953.635,865.387 952.946,872.038 952.946,872.038C952.946,872.038 962.496,860.639 963.095,852.331C963.694,844.023 963.337,836.735 963.337,836.735C963.337,836.735 970.741,840.214 970.573,847.657C970.333,858.29 964.731,869.166 964.731,869.166C964.731,869.166 972.47,860.689 975.602,859.065C978.733,857.441 980.891,858.319 980.891,858.319C980.891,858.319 979.979,861.983 977.737,864.574C975.496,867.164 968.38,876.47 968.38,876.47C968.38,876.47 974.39,872.949 978.088,872.341C981.157,871.837 982.23,874.59 982.23,874.59C982.23,874.59 976.977,879.59 972.974,882.429C968.971,885.267 961.59,889.758 961.59,889.758C961.59,889.758 970.743,887.371 975.631,889.151C980.52,890.931 980.698,894.917 980.698,894.917C980.698,894.917 974.552,893.983 967.577,894.929C960.602,895.875 954.051,897.248 954.051,897.248C954.051,897.248 951.045,901.851 941.719,901.41L941.829,903.011C941.829,903.011 936.291,903.951 930.791,900.088C930.791,900.088 933.017,905.937 940.023,908.916C947.029,911.895 952.345,915.834 954.08,922.907C955.814,929.981 957.016,937.815 963.358,940.865C969.075,943.615 970.605,942.096 970.785,941.382C970.966,940.668 970.172,939.715 969.234,940.323C968.296,940.931 967.281,941.313 967.281,941.313C967.281,941.313 966.736,939.189 968.114,938.175C970.14,936.684 973.216,937.942 973.216,937.942C973.216,937.942 972.475,935.216 969.982,933.867C967.49,932.518 963.468,930.256 960.584,924.245C959.328,921.627 961.54,915.477 958.838,913.518C955.658,911.212 952.576,910.626 952.576,910.626C952.576,910.626 959.914,905.407 964.165,911.76C964.165,911.76 968.357,908.61 969.434,905.682C970.511,902.753 971.844,898.027 975.567,898.568C979.289,899.108 980.651,903.931 979.595,906.094C978.538,908.256 976.098,910.223 977.305,912.43C978.511,914.638 982.069,912.583 979.072,911.163C979.072,911.163 981.468,908.4 983.238,911.725C984.684,914.439 979.803,917.695 977.905,917.306C976.006,916.917 973.562,915.553 973.308,912.351C973.053,909.149 975.319,906.227 975.725,904.718C976.13,903.208 975.033,901.645 974.507,903.588C973.981,905.531 972.823,909.392 970.993,911.33C969.164,913.267 968.203,914.776 968.203,914.776C968.203,914.776 974.225,913.997 974.551,918.705C974.551,918.705 969.994,915.716 967.845,918.78C967.845,918.78 975.108,917.717 974.516,921.97C974.516,921.97 970.731,919.576 968.964,922.527C968.964,922.527 976.421,921.931 974.866,926.842C974.866,926.842 972.185,925.103 971.04,926.274C969.896,927.446 970.304,929.449 972.241,930.733C974.179,932.017 979.285,937.543 976.93,942.68C974.574,947.816 966.709,948.408 961.622,945.82C956.534,943.231 952.103,935.071 950.834,929.021C948.774,919.198 945.613,917.596 945.613,917.596C945.613,917.596 946.02,925.454 944.373,929.622C942.726,933.789 938.644,938.023 938.644,938.023C938.644,938.023 940.649,940.232 942.181,939.569C943.713,938.906 945.824,936.976 948.19,937.967C950.555,938.958 950.627,942.456 951.432,943.807C952.236,945.158 955.119,944.333 955.119,944.333C955.119,944.333 954.73,949.203 949.081,948.034C949.081,948.034 948.89,950.63 951.166,950.376C953.441,950.122 955.085,948.956 955.085,948.956C955.085,948.956 953.784,953.357 950.691,954.483C947.599,955.61 946.318,952.888 946.318,952.888L945.103,963.922C945.103,963.922 950.189,965.422 949.818,968.557C948.943,975.936 945.654,975.501 945.654,975.501L945.909,971.338C945.909,971.338 943.931,972.742 942.696,970.5C942.696,970.5 938.798,972.94 937.471,974.81C936.145,976.68 933.261,979.003 930.31,976.236C930.31,976.236 927.509,975.912 925.679,979.291C925.679,979.291 923.498,974.85 928.91,973.11C928.91,973.11 925.772,969.005 922.671,973.21C922.671,973.21 921.726,967.326 927.184,967.516C927.184,967.516 926.155,965.789 926.396,963.891C926.396,963.891 924.06,963.51 922.642,966.439C922.642,966.439 920.503,960.872 928.165,960.137C933.287,959.645 934.806,964.476 934.806,964.476C934.806,964.476 937.676,964.056 937.292,961.377C936.594,956.504 936.423,951.73 936.423,951.73C936.423,951.73 933.14,949.656 931.128,949.061C931.128,949.061 931.661,952.103 928.436,953.229C925.212,954.356 922.65,953.372 922.65,953.372C922.65,953.372 926.533,950.6 926.439,949.569C926.346,948.538 923.295,945.201 923.45,942.228C923.605,939.255 925.346,932.909 925.346,932.909C925.346,932.909 918.025,931.485 914.31,930.974C911.01,930.52 910.744,931.722 910.923,933.249C911.103,934.777 915.841,935.565 916.178,938.584C916.515,941.602 913.441,944.102 913.441,944.102C913.441,944.102 912.944,945.941 916.143,948.213C916.143,948.213 910.304,950.16 907.844,944.734C907.844,944.734 906.678,948.23 911.026,949.74C911.026,949.74 905.374,954.255 903.159,948.634C903.159,948.634 898.572,953.385 893.427,955.524C893.427,955.524 894.783,959.299 894.297,960.876C893.811,962.453 892.135,962.394 892.135,962.394C892.135,962.394 891.822,966.031 888.614,966.616C888.614,966.616 889.107,964.338 889.241,962.097C889.241,962.097 885.504,962.254 885.999,958.027C885.999,958.027 880.346,958.156 876.204,956.916C872.062,955.675 873.959,952.702 873.959,952.702C873.959,952.702 871.991,951.454 869.588,953.707C869.588,953.707 869.48,948.46 875.396,950.325C875.396,950.325 876.928,944.782 870.794,946.404C870.794,946.404 873.575,941.275 877.676,944.747C877.676,944.747 879.434,942.556 880.38,942.076C880.38,942.076 879.48,940.579 875.753,941.095C875.753,941.095 879.196,935.355 883.635,940.649C883.635,940.649 886.248,941.046 886.467,944.177C886.685,947.309 886.955,949.674 886.955,949.674C886.955,949.674 890.076,950.509 891.012,947.341C891.948,944.173 895.476,938.923 898.748,936.705C898.748,936.705 893.024,933.425 893.619,928.753C893.619,928.753 887.569,930.711 887.829,923.379C887.829,923.379 889.493,924.8 891.926,925.07C891.926,925.07 893.089,919.365 897.172,918.192C901.255,917.019 904.989,917.989 907.669,918.935C910.35,919.881 919.005,918.146 919.005,918.146C919.005,918.146 900.973,915.259 896.722,907.248C896.722,907.248 894.846,908.517 894.745,910.18C894.745,910.18 891.587,908.259 891.902,904.979C891.902,904.979 888.083,905.087 886.889,905.898C886.889,905.898 886.321,904.25 886.636,903.011C886.636,903.011 884.748,903.618 884.563,901.857L876.685,902.573C876.685,902.573 878.541,910.286 875.912,910.574C875.912,910.574 873.253,916.338 868.433,912.466C868.433,912.466 873.162,912.089 872.985,909.583C872.985,909.583 870.365,909.316 871.936,905.062C871.936,905.062 867.934,904.053 869.056,900.737C869.056,900.737 867.428,900.166 867.158,899.109C867.158,899.109 863.058,899.83 863.688,896.308C863.688,896.308 863.404,894.724 858.739,895.287C858.739,895.287 858.983,892.181 865.266,892.976C865.266,892.976 866.857,892.286 868.299,895.8C868.299,895.8 868.836,893.291 867.852,892.051C866.869,890.811 865.939,889.693 866.975,888.728C866.975,888.728 864.892,886.477 862.145,887.449C862.145,887.449 863.517,882.887 868.905,886.295C868.905,886.295 870.421,885.872 871.456,888.801C872.491,891.73 872.757,894.298 872.757,894.298C872.757,894.298 875.471,894.415 874.281,891.9C873.331,889.891 871.185,887.845 873.907,885.919C873.907,885.919 874.151,883.459 870.925,881.107C870.925,881.107 875.064,879.716 877.268,884.875C877.268,884.875 879.537,885.427 879.331,889.279C879.125,893.131 877.545,896.916 877.545,896.916L882.71,895.978C882.71,895.978 882.267,894.337 882.93,893.813C883.594,893.289 885.621,893.105 885.621,893.105C885.621,893.105 883.41,891.265 883.176,887.674C883.176,887.674 885.513,889.39 888.081,889.705C888.081,889.705 888.102,881.722 889.273,877.148C889.273,877.148 885.087,873.079 882.548,872.301C882.548,872.301 884.838,870.88 887.654,871.624C887.654,871.624 885.077,870.256 884.894,866.235C884.894,866.235 885.676,866.327 887.073,866.005L882.83,859.494C882.83,859.494 883.665,868.572 878.984,866.747C878.984,866.747 873.849,870.52 871.416,864.47C871.416,864.47 873.384,866.038 876.178,865.318C876.178,865.318 875.909,861.759 878.793,861.684C878.793,861.684 879.465,858.909 878.619,857.652C877.772,856.394 877.449,855.249 877.697,854.517C877.697,854.517 874.881,852.638 872.709,851.861C870.536,851.083 869.403,848.893 870.594,847.337C870.594,847.337 869.969,845.498 866.103,845.962C866.103,845.962 868.065,841.624 872.456,844.955C872.456,844.955 873.654,844.785 875.396,846.497C877.139,848.209 878.075,850.125 878.075,850.125C878.075,850.125 879.217,848.363 878.142,847.219C877.068,846.076 875.741,845.024 877.43,843.583C877.43,843.583 877.551,840.988 873.443,840.358C873.443,840.358 875.725,837.28 879.735,841.02C879.735,841.02 882.669,842.435 883.028,847.459C883.028,847.459 884.34,847.354 884.132,845.548C883.924,843.741 884.128,843.332 885.747,843.346C885.747,843.346 886.437,840.946 883.143,838.95C883.143,838.95 888.281,836.924 889.448,844.313C889.448,844.313 890.57,845.808 889.015,848.128C887.46,850.448 884.482,853.469 884.482,853.469L892.02,862.035C892.02,862.035 893.258,860.457 893.348,859.267C893.348,859.267 894.822,860.754 894.766,863.66C894.766,863.66 896.016,861.7 898.202,861.537C898.202,861.537 897.655,866.181 899.93,868.119C899.93,868.119 907.443,867.154 912.382,863.698C917.321,860.242 918.154,855.722 918.154,855.722Z" style="fill:rgb(33,33,33);"/>
    </g>
</svg>
