<?xml version="1.0" encoding="UTF-8" standalone="no"?>
<!DOCTYPE svg PUBLIC "-//W3C//DTD SVG 1.1//EN" "http://www.w3.org/Graphics/SVG/1.1/DTD/svg11.dtd">
<svg width="100%" height="100%" viewBox="0 0 1150 1150" version="1.1" xmlns="http://www.w3.org/2000/svg" xmlns:xlink="http://www.w3.org/1999/xlink" xml:space="preserve"  style="fill-rule:evenodd;clip-rule:evenodd;stroke-linejoin:round;stroke-miterlimit:2;">
    <g id="bene_gesserit" transform="matrix(5.80953,0,0,5.80953,-4500,-4844.06)">
        <path d="M874.424,842.361C923.103,842.361 962.625,881.882 962.625,930.562C962.625,979.241 923.103,1018.76 874.424,1018.76C825.745,1018.76 786.223,979.241 786.223,930.562C786.223,881.882 825.745,842.361 874.424,842.361ZM873.489,877.329C902.114,877.329 925.355,900.57 925.355,929.195C925.355,957.821 902.114,981.061 873.489,981.061C844.863,981.061 821.623,957.821 821.623,929.195C821.623,900.57 844.863,877.329 873.489,877.329ZM877.574,885.297C875.359,881.203 873.73,878.603 873.428,878.603C873.125,878.603 871.493,881.208 869.275,885.308C846.917,887.433 829.403,906.285 829.403,929.195C829.403,953.527 849.157,973.281 873.489,973.281C897.821,973.281 917.575,953.527 917.575,929.195C917.575,906.241 899.993,887.36 877.574,885.297ZM880.183,890.294C898.747,893.477 912.893,909.665 912.893,929.13C912.893,950.878 895.236,968.534 873.489,968.534C851.741,968.534 834.085,950.878 834.085,929.13C834.085,909.712 848.163,893.555 866.66,890.318C865.295,893.019 863.84,896.035 862.408,899.193C850.248,903.7 841.572,915.41 841.572,929.13C841.572,946.746 855.873,961.047 873.489,961.047C891.104,961.047 905.406,946.746 905.406,929.13C905.406,915.355 896.66,903.606 884.423,899.138C882.995,895.991 881.544,892.987 880.183,890.294ZM887.337,905.871C895.275,910.602 900.598,919.273 900.598,929.177C900.598,944.139 888.451,956.286 873.489,956.286C858.527,956.286 846.38,944.139 846.38,929.177C846.38,919.34 851.63,910.721 859.478,905.969C857.118,911.726 855.08,917.552 853.988,922.516C853.274,924.606 852.886,926.846 852.886,929.177C852.886,940.548 862.118,949.78 873.489,949.78C884.86,949.78 894.092,940.548 894.092,929.177C894.092,926.516 893.586,923.972 892.666,921.636C891.529,916.841 889.576,911.323 887.337,905.871ZM873.388,886.379C873.388,886.379 857.935,916.631 857.935,929.596C857.935,938.124 864.859,945.049 873.388,945.049C881.917,945.049 888.841,938.124 888.841,929.596C888.841,916.631 873.388,886.379 873.388,886.379Z" style="fill:rgb(71,80,110);"/>
    </g>
</svg>
