<?xml version="1.0" encoding="UTF-8" standalone="no"?>
<!DOCTYPE svg PUBLIC "-//W3C//DTD SVG 1.1//EN" "http://www.w3.org/Graphics/SVG/1.1/DTD/svg11.dtd">
<svg width="100%" height="100%" viewBox="0 0 1150 1150" version="1.1" xmlns="http://www.w3.org/2000/svg" xmlns:xlink="http://www.w3.org/1999/xlink" xml:space="preserve"  style="fill-rule:evenodd;clip-rule:evenodd;stroke-linejoin:round;stroke-miterlimit:2;">
    <g id="spacing_guild" transform="matrix(5.64514,0,0,5.64514,-7410,-4200)">
        <path d="M1415.07,754.831C1465.17,754.831 1505.84,795.503 1505.84,845.6C1505.84,895.697 1465.17,936.369 1415.07,936.369C1364.97,936.369 1324.3,895.697 1324.3,845.6C1324.3,795.503 1364.97,754.831 1415.07,754.831ZM1445.07,850.754C1447.37,861.552 1456.97,869.66 1468.45,869.66C1481.65,869.66 1492.37,858.945 1492.37,845.747C1492.37,832.549 1481.65,821.834 1468.45,821.834C1457.13,821.834 1447.63,829.725 1445.16,840.304L1440.48,840.304C1438.01,829.725 1428.52,821.834 1417.19,821.834C1405.87,821.834 1396.37,829.725 1393.9,840.304L1388.52,840.304C1386.05,829.725 1376.55,821.834 1365.23,821.834C1352.03,821.834 1341.31,832.549 1341.31,845.747C1341.31,858.945 1352.03,869.66 1365.23,869.66C1376.71,869.66 1386.31,861.552 1388.61,850.754L1393.8,850.754C1396.11,861.552 1405.71,869.66 1417.19,869.66C1428.67,869.66 1438.27,861.552 1440.58,850.754L1445.07,850.754ZM1365.23,832.595C1372.49,832.595 1378.38,838.488 1378.38,845.747C1378.38,853.006 1372.49,858.899 1365.23,858.899C1357.97,858.899 1352.07,853.006 1352.07,845.747C1352.07,838.488 1357.97,832.595 1365.23,832.595ZM1417.19,832.595C1424.45,832.595 1430.34,838.488 1430.34,845.747C1430.34,853.006 1424.45,858.899 1417.19,858.899C1409.93,858.899 1404.04,853.006 1404.04,845.747C1404.04,838.488 1409.93,832.595 1417.19,832.595ZM1468.45,832.595C1475.71,832.595 1481.61,838.488 1481.61,845.747C1481.61,853.006 1475.71,858.899 1468.45,858.899C1461.2,858.899 1455.3,853.006 1455.3,845.747C1455.3,838.488 1461.2,832.595 1468.45,832.595Z" style="fill:rgb(186,88,39);"/>
    </g>
</svg>
