<?xml version="1.0" encoding="UTF-8" standalone="no"?>
<!DOCTYPE svg PUBLIC "-//W3C//DTD SVG 1.1//EN" "http://www.w3.org/Graphics/SVG/1.1/DTD/svg11.dtd">
<svg width="100%" height="100%" viewBox="0 0 1150 1150" version="1.1" xmlns="http://www.w3.org/2000/svg" xmlns:xlink="http://www.w3.org/1999/xlink" xml:space="preserve" style="fill-rule:evenodd;clip-rule:evenodd;stroke-linejoin:round;stroke-miterlimit:2;">
    <g id="atreides" transform="matrix(1.68493,0,0,1.68493,-1340,0)">
        <path d="M1137.16,38.561C1305,38.561 1441.27,174.828 1441.27,342.672C1441.27,510.515 1305,646.783 1137.16,646.783C969.312,646.783 833.045,510.515 833.045,342.672C833.045,174.828 969.312,38.561 1137.16,38.561ZM1162.43,252.646C1162.43,252.646 1186.76,240.037 1206.03,213.64C1225.29,187.243 1223.97,180.011 1231.5,180.36C1239.02,180.709 1261.25,179.52 1268.32,195.38C1272.83,205.5 1351.4,478.393 1351.4,478.393C1351.4,478.393 1305.79,464.368 1293.26,458.49C1280.68,452.596 1204.59,359.829 1193.44,350.43C1182.29,341.032 1166.48,343.387 1166.48,343.387L1164.15,376.844L1197.5,423.291L1138.24,504.996L1079.52,423.375L1110.69,377.042L1108.35,342.647C1108.35,342.647 1090.16,340.604 1079.92,350.5C1071.42,358.727 992.449,453.898 983.054,457.301C959.745,465.743 922.906,479.643 922.906,479.643C922.906,479.643 998.025,212.516 1008.65,197.279C1019.28,182.041 1045.65,180.03 1051.47,181.995C1057.29,183.961 1051.69,197.385 1074.65,224.362C1093.95,247.026 1115.35,253.491 1115.35,253.491C1115.35,253.491 1124.19,215.271 1123.11,205.475C1122.33,198.434 1105.27,196.198 1105.27,196.198C1105.27,196.198 1115.52,187.417 1123.86,186.471C1137.09,184.972 1152.1,185.165 1153.78,194.598C1155.43,203.893 1162.43,252.646 1162.43,252.646Z" style="fill:rgb(86,105,45);"/>
    </g>
</svg>
