<?xml version="1.0" encoding="UTF-8" standalone="no"?>
<!DOCTYPE svg PUBLIC "-//W3C//DTD SVG 1.1//EN" "http://www.w3.org/Graphics/SVG/1.1/DTD/svg11.dtd">
<svg width="100%" height="100%" viewBox="0 0 1150 1150" version="1.1" xmlns="http://www.w3.org/2000/svg" xmlns:xlink="http://www.w3.org/1999/xlink" xml:space="preserve"  style="fill-rule:evenodd;clip-rule:evenodd;stroke-linejoin:round;stroke-miterlimit:2;">
    <g id="fremen" transform="matrix(5.61638,0,0,5.61638,-5810,-2170)">
        <path d="M1137.16,397.7C1187.51,397.7 1228.39,438.581 1228.39,488.934C1228.39,539.287 1187.51,580.168 1137.16,580.168C1086.8,580.168 1045.92,539.287 1045.92,488.934C1045.92,438.581 1086.8,397.7 1137.16,397.7ZM1100.27,438.03C1100.27,438.03 1114.92,457.646 1128.34,463.417C1146.07,471.04 1155.18,483.636 1155.18,483.636L1157.05,482.055L1164.88,486.937C1164.88,486.937 1162.79,493.06 1165.69,494.672C1168.59,496.283 1178.31,500.054 1179.5,516.941C1180.6,517 1182.35,517.047 1182.35,517.047L1183.47,525.741C1183.47,525.741 1173.77,535.594 1156.04,540L1155.25,529.563C1155.25,529.563 1162.3,521.259 1161.76,516.907C1161.21,512.556 1152.04,503.381 1152.04,503.381L1148.46,504.599L1141.35,499.286L1144.77,495.949C1144.77,495.949 1132.38,483.23 1123.42,478.977C1114.45,474.724 1105.66,467.244 1102.49,458.642C1098.48,447.755 1100.27,438.03 1100.27,438.03ZM1135.21,492.492C1133.05,494.535 1131.67,495.949 1131.67,495.949L1135.09,499.286L1127.97,504.599L1124.39,503.381C1124.39,503.381 1115.23,512.556 1114.68,516.907C1114.13,521.259 1121.18,529.563 1121.18,529.563L1120.4,540C1102.67,535.594 1092.96,525.741 1092.96,525.741L1094.09,517.047C1094.09,517.047 1095.84,517 1096.94,516.941C1098.12,500.054 1107.84,496.283 1110.74,494.672C1113.64,493.06 1111.56,486.937 1111.56,486.937L1119.38,482.055L1121.26,483.636C1121.26,483.636 1121.7,483.274 1122.04,482.852C1128.22,486.438 1132.35,489.968 1135.21,492.492ZM1142.05,466.364C1143.94,465.33 1145.95,464.337 1148.09,463.417C1161.51,457.646 1176.16,438.03 1176.16,438.03C1176.16,438.03 1177.95,447.755 1173.94,458.642C1171.02,466.564 1163.34,473.534 1155.14,477.909C1150.22,472.841 1145.01,468.633 1142.05,466.364Z" style="fill:rgb(199,153,61);"/>
    </g>
</svg>
